# Created by Open3D 
# object name: D01096_refined_clamped_norm
# number of vertices: 624
# number of triangles: 832
v -0.120407 0.381491 0.267988
vn -0.890374 0.455156 0.00815197
v -0.116449 0.381491 -0.27446
vn 0.580206 0.814459 -0.00423367
v -0.120407 0.381491 -0.27446
vn -0.814242 0.580404 -0.0118828
v -0.116449 0.381491 0.267988
vn 0.968843 0.247635 0.00443521
v -0.116449 0.375822 -0.280129
vn 0.999975 7.36428e-05 -0.00705612
v -0.116449 -0.164646 0.27788
vn 0.984754 -0.173737 0.00868539
v -0.116449 -0.164646 -0.280129
vn 0.984853 -0.173075 -0.0105047
v -0.116449 0.371598 0.27788
vn 0.999974 0.000257001 0.00722263
v -0.211429 -0.164646 -0.280129
vn -0.995602 -0.0935787 -0.00451189
v -0.211429 -0.164646 0.27788
vn -0.995506 -0.0942651 0.00900494
v -0.162552 0.370858 -0.280129
vn 0.996505 -0.0834577 -0.00360074
v -0.206944 -0.158709 0.27788
vn 0.99831 -0.0574218 0.00897952
v -0.206944 -0.158709 -0.280129
vn 0.998263 -0.0560949 -0.0180026
v -0.162903 0.36667 0.27788
vn 0.996501 -0.0832695 0.00725458
v -0.162081 0.376484 0.267988
vn 0.986832 0.161691 0.00434273
v -0.162081 0.376484 -0.27446
vn 0.691953 0.721931 -0.00402318
v -0.166007 0.377224 0.267988
vn -0.83517 0.549926 0.00852717
v -0.166007 0.377224 -0.27446
vn -0.735796 0.677087 -0.0125025
v -0.195071 -0.158709 -0.26232
vn 0 0.999255 -0.0385883
v -0.120407 -0.158709 -0.280129
vn -0.999873 0.0137415 -0.00802455
v -0.195071 -0.158709 0.260071
vn 0 1 0
v -0.13228 -0.158709 0.260071
vn 0 0.999105 0.0423028
v -0.13228 -0.158709 -0.26232
vn 0 0.99959 -0.0286371
v -0.120407 -0.158709 0.27788
vn -0.998784 0.0484959 0.00881859
v -0.120407 0.371598 0.27788
vn -0.999975 6.52945e-05 0.00710496
v -0.16683 0.36741 0.27788
vn -0.996475 0.0835936 0.00705192
v -0.16648 0.371598 -0.280129
vn -0.996404 0.0835968 -0.0138372
v -0.120407 0.375822 -0.280129
vn -0.999976 7.31286e-05 -0.00696856
v -0.195071 -0.146837 0.260071
vn 0 0 1
v -0.172953 -0.133882 0.260071
vn 0 0 1
v -0.157122 -0.133882 0.260071
vn 0 0 1
v -0.172953 -0.110137 0.260071
vn 0 0 1
v -0.13228 -0.146837 0.260071
vn 0 0 1
v -0.157122 -0.110137 0.260071
vn 0 0 1
v -0.157122 -0.110137 -0.26232
vn 0 0 -1
v -0.172953 -0.133882 -0.26232
vn 0 0 -1
v -0.172953 -0.110137 -0.26232
vn 0 0 -1
v -0.195071 -0.146837 -0.26232
vn 0 0 -1
v -0.157122 -0.133882 -0.26232
vn 0 0 -1
v -0.13228 -0.146837 -0.26232
vn 0 0 -1
v -0.193787 -0.137141 -0.00247053
vn 0 0 -1
v -0.163676 -0.154974 -0.00247053
vn 0 0 -1
v -0.163676 -0.160112 -0.00247053
vn 0 0 -1
v -0.189133 -0.135553 -0.00247053
vn 0 0 -1
v -0.182285 -0.099973 -0.00247053
vn 0 0 -1
v -0.179409 -0.104129 -0.00247053
vn 0 0 -1
v -0.147942 -0.104129 -0.00247053
vn 0 0 -1
v -0.133564 -0.137141 -0.00247053
vn 0 0 -1
v -0.138218 -0.135553 -0.00247053
vn 0 0 -1
v -0.145067 -0.099973 -0.00247053
vn 0 0 -1
v -0.193787 -0.137141 -0.216176
vn 0 0 -1
v -0.163676 -0.154974 -0.216176
vn 0 0 -1
v -0.163676 -0.160112 -0.216176
vn 0 0 -1
v -0.189133 -0.135553 -0.216176
vn 0 0 -1
v -0.182285 -0.099973 -0.216176
vn 0 0 -1
v -0.179409 -0.104129 -0.216176
vn 0 0 -1
v -0.147942 -0.104129 -0.216176
vn 0 0 -1
v -0.133564 -0.137141 -0.216176
vn 0 0 -1
v -0.138218 -0.135553 -0.216176
vn 0 0 -1
v -0.145067 -0.099973 -0.216176
vn 0 0 -1
v -0.193787 -0.137141 0.223093
vn 0 0 -1
v -0.163676 -0.154974 0.223093
vn 0 0 -1
v -0.163676 -0.160112 0.223093
vn 0 0 -1
v -0.189133 -0.135553 0.223093
vn 0 0 -1
v -0.182285 -0.099973 0.223093
vn 0 0 -1
v -0.179409 -0.104129 0.223093
vn 0 0 -1
v -0.147942 -0.104129 0.223093
vn 0 0 -1
v -0.133564 -0.137141 0.223093
vn 0 0 -1
v -0.138218 -0.135553 0.223093
vn 0 0 -1
v -0.145067 -0.099973 0.223093
vn 0 0 -1
v -0.130915 0.279681 -0.257745
vn 0.99887 0.0361826 -0.0308061
v -0.147811 -0.123189 0.252774
vn 0.990815 -0.120156 0.0620268
v -0.147811 -0.123189 -0.257745
vn 0.985147 -0.119468 -0.123344
v -0.130915 0.279681 0.252774
vn 0.997451 0.0361312 0.0615246
v -0.162513 0.282663 0.252774
vn -0.990815 0.120156 0.0620268
v -0.179409 -0.120207 -0.257745
vn -0.99887 -0.0361826 -0.0308061
v -0.179409 -0.120207 0.252774
vn -0.997451 -0.0361312 0.0615246
v -0.162513 0.282663 -0.257745
vn -0.985147 0.119468 -0.123344
v 0.105171 0.38716 0.271813
vn -0.890352 0.4552 0.0081512
v 0.109129 0.38716 -0.270635
vn 0.580206 0.814459 -0.00423367
v 0.105171 0.38716 -0.270635
vn -0.814242 0.580404 -0.0118828
v 0.109129 0.38716 0.271813
vn 0.968836 0.247663 0.00443486
v 0.109129 0.381491 -0.276303
vn 0.999975 7.36428e-05 -0.00705612
v 0.109129 -0.158977 0.281706
vn 0.984754 -0.173737 0.0086854
v 0.109129 -0.158977 -0.276303
vn 0.984853 -0.173075 -0.0105047
v 0.109129 0.377269 0.281706
vn 0.999974 0.000257002 0.00722261
v 0.0141487 -0.158977 -0.276303
vn -0.995602 -0.0935785 -0.00451178
v 0.0141487 -0.158977 0.281706
vn -0.995506 -0.0942651 0.00900499
v 0.0630261 0.376529 -0.276303
vn 0.996505 -0.0834577 -0.00360085
v 0.0186341 -0.15304 0.281706
vn 0.99831 -0.0574217 0.00897936
v 0.0186341 -0.15304 -0.276303
vn 0.998263 -0.0560947 -0.0180026
v 0.0626746 0.372339 0.281706
vn 0.996501 -0.0832695 0.00725426
v 0.0634973 0.382153 0.271813
vn 0.986829 0.161707 0.00434302
v 0.0634973 0.382153 -0.270635
vn 0.691863 0.722018 -0.00402237
v 0.059571 0.382893 0.271813
vn -0.835137 0.549976 0.00852811
v 0.059571 0.382893 -0.270635
vn -0.735667 0.677228 -0.012501
v 0.0305066 -0.15304 -0.258495
vn 0 0.999255 -0.0385884
v 0.105171 -0.15304 -0.276303
vn -0.999873 0.0137415 -0.00802454
v 0.0305066 -0.15304 0.263897
vn 0 1 0
v 0.0932983 -0.15304 0.263897
vn 0 0.999105 0.0423028
v 0.0932983 -0.15304 -0.258495
vn 0 0.99959 -0.0286371
v 0.105171 -0.15304 0.281706
vn -0.998784 0.0484958 0.00881858
v 0.105171 0.377269 0.281706
vn -0.999975 6.52948e-05 0.00710497
v 0.0587483 0.373079 0.281706
vn -0.996475 0.0835935 0.00705205
v 0.059098 0.377269 -0.276303
vn -0.996404 0.0835969 -0.013837
v 0.105171 0.381491 -0.276303
vn -0.999976 7.31288e-05 -0.00696858
v 0.0305066 -0.141168 0.263897
vn 0 0 1
v 0.0526251 -0.128213 0.263897
vn 0 0 1
v 0.0684557 -0.128213 0.263897
vn 0 0 1
v 0.0526251 -0.104468 0.263897
vn 0 0 1
v 0.0932983 -0.141168 0.263897
vn 0 0 1
v 0.0684557 -0.104468 0.263897
vn 0 0 1
v 0.0684557 -0.104468 -0.258495
vn 0 0 -1
v 0.0526251 -0.128213 -0.258495
vn 0 0 -1
v 0.0526251 -0.104468 -0.258495
vn 0 0 -1
v 0.0305066 -0.141168 -0.258495
vn 0 0 -1
v 0.0684557 -0.128213 -0.258495
vn 0 0 -1
v 0.0932983 -0.141168 -0.258495
vn 0 0 -1
v 0.0317911 -0.131472 0.00135486
vn 0 0 -1
v 0.0619025 -0.149305 0.00135486
vn 0 0 -1
v 0.0619025 -0.154441 0.00135486
vn 0 0 -1
v 0.0364448 -0.129884 0.00135486
vn 0 0 -1
v 0.0432934 -0.0943041 0.00135486
vn 0 0 -1
v 0.046169 -0.0984586 0.00135486
vn 0 0 -1
v 0.0776359 -0.0984586 0.00135486
vn 0 0 -1
v 0.0920138 -0.131472 0.00135486
vn 0 0 -1
v 0.0873601 -0.129884 0.00135486
vn 0 0 -1
v 0.0805115 -0.0943041 0.00135486
vn 0 0 -1
v 0.0317911 -0.131472 -0.212351
vn 0 0 -1
v 0.0619025 -0.149305 -0.212351
vn 0 0 -1
v 0.0619025 -0.154441 -0.212351
vn 0 0 -1
v 0.0364448 -0.129884 -0.212351
vn 0 0 -1
v 0.0432934 -0.0943041 -0.212351
vn 0 0 -1
v 0.046169 -0.0984586 -0.212351
vn 0 0 -1
v 0.0776359 -0.0984586 -0.212351
vn 0 0 -1
v 0.0920138 -0.131472 -0.212351
vn 0 0 -1
v 0.0873601 -0.129884 -0.212351
vn 0 0 -1
v 0.0805115 -0.0943041 -0.212351
vn 0 0 -1
v 0.0317911 -0.131472 0.226916
vn 0 0 -1
v 0.0619025 -0.149305 0.226916
vn 0 0 -1
v 0.0619025 -0.154441 0.226916
vn 0 0 -1
v 0.0364448 -0.129884 0.226916
vn 0 0 -1
v 0.0432934 -0.0943041 0.226916
vn 0 0 -1
v 0.046169 -0.0984586 0.226916
vn 0 0 -1
v 0.0776359 -0.0984586 0.226916
vn 0 0 -1
v 0.0920138 -0.131472 0.226916
vn 0 0 -1
v 0.0873601 -0.129884 0.226916
vn 0 0 -1
v 0.0805115 -0.0943041 0.226916
vn 0 0 -1
v 0.0946632 0.285351 -0.253921
vn 0.99887 0.0361827 -0.0308061
v 0.0777668 -0.117518 0.256597
vn 0.990815 -0.120156 0.0620269
v 0.0777668 -0.117518 -0.253921
vn 0.985146 -0.119468 -0.123344
v 0.0946632 0.285351 0.256597
vn 0.997451 0.0361313 0.0615246
v 0.0630654 0.288334 0.256597
vn -0.990815 0.120156 0.0620269
v 0.046169 -0.114536 -0.253921
vn -0.99887 -0.0361827 -0.0308061
v 0.046169 -0.114536 0.256597
vn -0.997451 -0.0361313 0.0615246
v 0.0630654 0.288334 -0.253921
vn -0.985146 0.119468 -0.123344
v -0.0165236 0.381491 0.267988
vn -0.890374 0.455156 0.00815197
v -0.0125654 0.381491 -0.27446
vn 0.580206 0.814459 -0.00423367
v -0.0165236 0.381491 -0.27446
vn -0.814242 0.580404 -0.0118828
v -0.0125654 0.381491 0.267988
vn 0.968843 0.247635 0.00443521
v -0.0125654 0.375822 -0.280129
vn 0.999975 7.36428e-05 -0.00705612
v -0.0125654 -0.164646 0.27788
vn 0.984754 -0.173737 0.00868538
v -0.0125654 -0.164646 -0.280129
vn 0.984853 -0.173075 -0.0105046
v -0.0125654 0.371598 0.27788
vn 0.999974 0.000257001 0.00722263
v -0.107546 -0.164646 -0.280129
vn -0.995602 -0.093577 -0.00451516
v -0.107546 -0.164646 0.27788
vn -0.995506 -0.0942651 0.00900822
v -0.0586683 0.370858 -0.280129
vn 0.996505 -0.0834544 -0.00359908
v -0.103058 -0.158709 0.27788
vn 0.99831 -0.0574184 0.00898117
v -0.103058 -0.158709 -0.280129
vn 0.998263 -0.0560915 -0.0180026
v -0.0590197 0.36667 0.27788
vn 0.996501 -0.0832661 0.00725461
v -0.0581971 0.376484 0.267988
vn 0.986832 0.161691 0.00434273
v -0.0581971 0.376484 -0.27446
vn 0.691953 0.721931 -0.00402318
v -0.0621234 0.377224 0.267988
vn -0.835221 0.549848 0.00852572
v -0.0621234 0.377224 -0.27446
vn -0.735936 0.676935 -0.0125016
v -0.0911859 -0.158709 -0.26232
vn 0 0.999255 -0.0385881
v -0.0165236 -0.158709 -0.280129
vn -0.999873 0.0137415 -0.00802453
v -0.0911859 -0.158709 0.260071
vn 0 1 0
v -0.0283961 -0.158709 0.260071
vn 0 0.999105 0.0423022
v -0.0283961 -0.158709 -0.26232
vn 0 0.99959 -0.0286366
v -0.0165236 -0.158709 0.27788
vn -0.998784 0.0484959 0.00881855
v -0.0165236 0.371598 0.27788
vn -0.999975 6.52945e-05 0.00710496
v -0.0629461 0.36741 0.27788
vn -0.996475 0.0835953 0.00705189
v -0.0625946 0.371598 -0.280129
vn -0.996404 0.0835968 -0.0138404
v -0.0165236 0.375822 -0.280129
vn -0.999976 7.31286e-05 -0.00696856
v -0.0911859 -0.146837 0.260071
vn 0 0 1
v -0.0690675 -0.133882 0.260071
vn 0 0 1
v -0.0532386 -0.133882 0.260071
vn 0 0 1
v -0.0690675 -0.110137 0.260071
vn 0 0 1
v -0.0283961 -0.146837 0.260071
vn 0 0 1
v -0.0532386 -0.110137 0.260071
vn 0 0 1
v -0.0532386 -0.110137 -0.26232
vn 0 0 -1
v -0.0690675 -0.133882 -0.26232
vn 0 0 -1
v -0.0690675 -0.110137 -0.26232
vn 0 0 -1
v -0.0911859 -0.146837 -0.26232
vn 0 0 -1
v -0.0532386 -0.133882 -0.26232
vn 0 0 -1
v -0.0283961 -0.146837 -0.26232
vn 0 0 -1
v -0.0899014 -0.137141 -0.00247053
vn 0 0 -1
v -0.0597901 -0.154974 -0.00247053
vn 0 0 -1
v -0.0597901 -0.160112 -0.00247053
vn 0 0 -1
v -0.0852496 -0.135553 -0.00247053
vn 0 0 -1
v -0.078401 -0.099973 -0.00247053
vn 0 0 -1
v -0.0755254 -0.104129 -0.00247053
vn 0 0 -1
v -0.0440566 -0.104129 -0.00247053
vn 0 0 -1
v -0.0296806 -0.137141 -0.00247053
vn 0 0 -1
v -0.0343324 -0.135553 -0.00247053
vn 0 0 -1
v -0.041181 -0.099973 -0.00247053
vn 0 0 -1
v -0.0899014 -0.137141 -0.216176
vn 0 0 -1
v -0.0597901 -0.154974 -0.216176
vn 0 0 -1
v -0.0597901 -0.160112 -0.216176
vn 0 0 -1
v -0.0852496 -0.135553 -0.216176
vn 0 0 -1
v -0.078401 -0.099973 -0.216176
vn 0 0 -1
v -0.0755254 -0.104129 -0.216176
vn 0 0 -1
v -0.0440566 -0.104129 -0.216176
vn 0 0 -1
v -0.0296806 -0.137141 -0.216176
vn 0 0 -1
v -0.0343324 -0.135553 -0.216176
vn 0 0 -1
v -0.041181 -0.099973 -0.216176
vn 0 0 -1
v -0.0899014 -0.137141 0.223093
vn 0 0 -1
v -0.0597901 -0.154974 0.223093
vn 0 0 -1
v -0.0597901 -0.160112 0.223093
vn 0 0 -1
v -0.0852496 -0.135553 0.223093
vn 0 0 -1
v -0.078401 -0.099973 0.223093
vn 0 0 -1
v -0.0755254 -0.104129 0.223093
vn 0 0 -1
v -0.0440566 -0.104129 0.223093
vn 0 0 -1
v -0.0296806 -0.137141 0.223093
vn 0 0 -1
v -0.0343324 -0.135553 0.223093
vn 0 0 -1
v -0.041181 -0.099973 0.223093
vn 0 0 -1
v -0.0270293 0.279681 -0.257745
vn 0.99887 0.036178 -0.0308061
v -0.0439276 -0.123189 0.252774
vn 0.990815 -0.12016 0.0620268
v -0.0439276 -0.123189 -0.257745
vn 0.985146 -0.119473 -0.123344
v -0.0270293 0.279681 0.252774
vn 0.997452 0.0361266 0.0615247
v -0.0586271 0.282663 0.252774
vn -0.990815 0.12016 0.0620268
v -0.0755254 -0.120207 -0.257745
vn -0.99887 -0.036178 -0.0308061
v -0.0755254 -0.120207 0.252774
vn -0.997452 -0.0361266 0.0615247
v -0.0586271 0.282663 -0.257745
vn -0.985146 0.119473 -0.123344
v 0.216732 0.390701 0.267988
vn -0.890462 0.454984 0.00814888
v 0.220688 0.390701 -0.27446
vn 0.58039 0.814327 -0.00423298
v 0.216732 0.390701 -0.27446
vn -0.814373 0.58022 -0.011879
v 0.220688 0.390701 0.267988
vn 0.968872 0.247524 0.00443321
v 0.220688 0.385032 -0.280129
vn 0.999975 7.36076e-05 -0.00705274
v 0.220688 -0.155436 0.27788
vn 0.984754 -0.173737 0.00868208
v 0.220688 -0.155436 -0.280129
vn 0.984853 -0.173075 -0.0105013
v 0.220688 0.380808 0.27788
vn 0.999974 0.000256878 0.00721917
v 0.125708 -0.155436 -0.280129
vn -0.995602 -0.093577 -0.00451513
v 0.125708 -0.155436 0.27788
vn -0.995506 -0.0942651 0.00900817
v 0.174585 0.380068 -0.280129
vn 0.996505 -0.0834578 -0.00360078
v 0.130195 -0.149499 0.27788
vn 0.99831 -0.0574201 0.00898118
v 0.130195 -0.149499 -0.280129
vn 0.998263 -0.0560914 -0.0180026
v 0.174235 0.37588 0.27788
vn 0.996501 -0.0832695 0.0072547
v 0.175058 0.385694 0.267988
vn 0.986832 0.161692 0.00434275
v 0.175058 0.385694 -0.27446
vn 0.691866 0.722015 -0.00402474
v 0.17113 0.386434 0.267988
vn -0.835118 0.550005 0.00852869
v 0.17113 0.386434 -0.27446
vn -0.735794 0.67709 -0.0125026
v 0.142067 -0.149499 -0.26232
vn 0 0.999255 -0.0385883
v 0.216732 -0.149499 -0.280129
vn -0.999873 0.0137415 -0.00802113
v 0.142067 -0.149499 0.260071
vn 0 1 0
v 0.204859 -0.149499 0.260071
vn 0 0.999105 0.0423028
v 0.204859 -0.149499 -0.26232
vn 0 0.99959 -0.0286371
v 0.216732 -0.149499 0.27788
vn -0.998784 0.048496 0.0088152
v 0.216732 0.380808 0.27788
vn -0.999975 6.52632e-05 0.00710156
v 0.170307 0.37662 0.27788
vn -0.996475 0.0835952 0.00705352
v 0.170659 0.380808 -0.280129
vn -0.996404 0.0835967 -0.0138404
v 0.216732 0.385032 -0.280129
vn -0.999976 7.30936e-05 -0.00696523
v 0.142067 -0.137627 0.260071
vn 0 0 1
v 0.164186 -0.124672 0.260071
vn 0 0 1
v 0.180016 -0.124672 0.260071
vn 0 0 1
v 0.164186 -0.100927 0.260071
vn 0 0 1
v 0.204859 -0.137627 0.260071
vn 0 0 1
v 0.180016 -0.100927 0.260071
vn 0 0 1
v 0.180016 -0.100927 -0.26232
vn 0 0 -1
v 0.164186 -0.124672 -0.26232
vn 0 0 -1
v 0.164186 -0.100927 -0.26232
vn 0 0 -1
v 0.142067 -0.137627 -0.26232
vn 0 0 -1
v 0.180016 -0.124672 -0.26232
vn 0 0 -1
v 0.204859 -0.137627 -0.26232
vn 0 0 -1
v 0.143352 -0.12793 -0.00247053
vn 0 0 -1
v 0.173463 -0.145764 -0.00247053
vn 0 0 -1
v 0.173463 -0.150902 -0.00247053
vn 0 0 -1
v 0.148005 -0.126343 -0.00247053
vn 0 0 -1
v 0.154854 -0.0907629 -0.00247053
vn 0 0 -1
v 0.157728 -0.0949192 -0.00247053
vn 0 0 -1
v 0.189197 -0.0949192 -0.00247053
vn 0 0 -1
v 0.203573 -0.12793 -0.00247053
vn 0 0 -1
v 0.198921 -0.126343 -0.00247053
vn 0 0 -1
v 0.192072 -0.0907629 -0.00247053
vn 0 0 -1
v 0.143352 -0.12793 -0.216176
vn 0 0 -1
v 0.173463 -0.145764 -0.216176
vn 0 0 -1
v 0.173463 -0.150902 -0.216176
vn 0 0 -1
v 0.148005 -0.126343 -0.216176
vn 0 0 -1
v 0.154854 -0.0907629 -0.216176
vn 0 0 -1
v 0.157728 -0.0949192 -0.216176
vn 0 0 -1
v 0.189197 -0.0949192 -0.216176
vn 0 0 -1
v 0.203573 -0.12793 -0.216176
vn 0 0 -1
v 0.198921 -0.126343 -0.216176
vn 0 0 -1
v 0.192072 -0.0907629 -0.216176
vn 0 0 -1
v 0.143352 -0.12793 0.223093
vn 0 0 -1
v 0.173463 -0.145764 0.223093
vn 0 0 -1
v 0.173463 -0.150902 0.223093
vn 0 0 -1
v 0.148005 -0.126343 0.223093
vn 0 0 -1
v 0.154854 -0.0907629 0.223093
vn 0 0 -1
v 0.157728 -0.0949192 0.223093
vn 0 0 -1
v 0.189197 -0.0949192 0.223093
vn 0 0 -1
v 0.203573 -0.12793 0.223093
vn 0 0 -1
v 0.198921 -0.126343 0.223093
vn 0 0 -1
v 0.192072 -0.0907629 0.223093
vn 0 0 -1
v 0.206224 0.288891 -0.257745
vn 0.99887 0.036178 -0.0308061
v 0.189326 -0.113979 0.252774
vn 0.990815 -0.12016 0.0620268
v 0.189326 -0.113979 -0.257745
vn 0.985146 -0.119473 -0.123344
v 0.206224 0.288891 0.252774
vn 0.997452 0.0361266 0.0615247
v 0.174626 0.291873 0.252774
vn -0.990815 0.12016 0.0620268
v 0.157728 -0.110997 -0.257745
vn -0.99887 -0.036178 -0.0308061
v 0.157728 -0.110997 0.252774
vn -0.997452 -0.0361266 0.0615247
v 0.174626 0.291873 -0.257745
vn -0.985146 0.119473 -0.123344
v -0.229865 0.389974 0.267988
vn -0.796189 0.605024 0.00546598
v -0.223928 0.389974 -0.27446
vn 0.42905 0.903268 -0.00469531
v -0.229865 0.389974 -0.27446
vn -0.683051 0.730218 -0.0149499
v -0.223928 0.389974 0.267988
vn 0.9315 0.363517 0.0127898
v -0.223928 0.384305 -0.280129
vn 0.999944 0.000110443 -0.0105822
v -0.223928 -0.156163 0.27788
vn 0.966642 -0.255812 0.0127869
v -0.223928 -0.156163 -0.280129
vn 0.966852 -0.254868 -0.0154674
v -0.223928 0.380083 0.27788
vn 0.999943 0.000192714 0.0106392
v -0.293083 0.379343 -0.280129
vn 0.992187 -0.124643 -0.0053754
v -0.35967 -0.150227 0.27788
vn 0.996209 -0.0859496 0.0134415
v -0.35967 -0.150227 -0.280129
vn 0.996105 -0.0839584 -0.0269421
v -0.29361 0.375153 0.27788
vn 0.992178 -0.124361 0.0108343
v -0.292376 0.384967 0.267988
vn 0.971075 0.23869 0.00641056
v -0.292376 0.384967 -0.27446
vn 0.538344 0.842712 -0.0046947
v -0.298265 0.385707 0.267988
vn -0.711453 0.702649 0.0108952
v -0.298265 0.385707 -0.27446
vn -0.586634 0.809714 -0.0149489
v -0.341861 -0.150227 -0.26232
vn 0 0.999255 -0.0385883
v -0.229865 -0.150227 -0.280129
vn -0.999715 0.020609 -0.0120332
v -0.341861 -0.150227 0.260071
vn 0 1 0
v -0.247673 -0.150227 0.260071
vn 0 0.999105 0.0423026
v -0.247673 -0.150227 -0.26232
vn 0 0.99959 -0.028637
v -0.229865 -0.150227 0.27788
vn -0.997271 0.0726334 0.0132061
v -0.366399 -0.156163 0.27788
vn -0.989974 -0.140612 0.0134339
v -0.229865 0.380083 0.27788
vn -0.999942 0.000195846 0.0107533
v -0.299499 0.375893 0.27788
vn -0.99212 0.124845 0.0105301
v -0.298972 0.380083 -0.280129
vn -0.991962 0.124836 -0.0206645
v -0.366399 -0.156163 -0.280129
vn -0.990185 -0.139601 -0.00673405
v -0.229865 0.384305 -0.280129
vn -0.999945 0.000109672 -0.0104509
v -0.341861 -0.138354 0.260071
vn 0 0 1
v -0.308683 -0.125399 0.260071
vn 0 0 1
v -0.284938 -0.125399 0.260071
vn 0 0 1
v -0.308683 -0.101654 0.260071
vn 0 0 1
v -0.247673 -0.138354 0.260071
vn 0 0 1
v -0.284938 -0.101654 0.260071
vn 0 0 1
v -0.284938 -0.101654 -0.26232
vn 0 0 -1
v -0.308683 -0.125399 -0.26232
vn 0 0 -1
v -0.308683 -0.101654 -0.26232
vn 0 0 -1
v -0.341861 -0.138354 -0.26232
vn 0 0 -1
v -0.284938 -0.125399 -0.26232
vn 0 0 -1
v -0.247673 -0.138354 -0.26232
vn 0 0 -1
v -0.339933 -0.118812 -0.00247053
vn 0 0 -1
v -0.294767 -0.14429 -0.00247053
vn 0 0 -1
v -0.294767 -0.151627 -0.00247053
vn 0 0 -1
v -0.332954 -0.116544 -0.00247053
vn 0 0 -1
v -0.322682 -0.0657165 -0.00247053
vn 0 0 -1
v -0.318368 -0.0716528 -0.00247053
vn 0 0 -1
v -0.271166 -0.0716528 -0.00247053
vn 0 0 -1
v -0.249601 -0.118812 -0.00247053
vn 0 0 -1
v -0.256581 -0.116544 -0.00247053
vn 0 0 -1
v -0.266853 -0.0657165 -0.00247053
vn 0 0 -1
v -0.339933 -0.118812 -0.216176
vn 0 0 -1
v -0.294767 -0.14429 -0.216176
vn 0 0 -1
v -0.294767 -0.151627 -0.216176
vn 0 0 -1
v -0.332954 -0.116544 -0.216176
vn 0 0 -1
v -0.322682 -0.0657165 -0.216176
vn 0 0 -1
v -0.318368 -0.0716528 -0.216176
vn 0 0 -1
v -0.271166 -0.0716528 -0.216176
vn 0 0 -1
v -0.249601 -0.118812 -0.216176
vn 0 0 -1
v -0.256581 -0.116544 -0.216176
vn 0 0 -1
v -0.266853 -0.0657165 -0.216176
vn 0 0 -1
v -0.339933 -0.118812 0.223093
vn 0 0 -1
v -0.294767 -0.14429 0.223093
vn 0 0 -1
v -0.294767 -0.151627 0.223093
vn 0 0 -1
v -0.332954 -0.116544 0.223093
vn 0 0 -1
v -0.322682 -0.0657165 0.223093
vn 0 0 -1
v -0.318368 -0.0716528 0.223093
vn 0 0 -1
v -0.271166 -0.0716528 0.223093
vn 0 0 -1
v -0.249601 -0.118812 0.223093
vn 0 0 -1
v -0.256581 -0.116544 0.223093
vn 0 0 -1
v -0.266853 -0.0657165 0.223093
vn 0 0 -1
v -0.245626 0.288165 -0.257745
vn 0.997464 0.0541906 -0.0461422
v -0.270972 -0.114704 0.252774
vn 0.979683 -0.178211 0.0919931
v -0.270972 -0.114704 -0.257745
vn 0.967478 -0.175991 -0.181694
v -0.245626 0.288165 0.252774
vn 0.994294 0.0540183 0.0919911
v -0.293021 0.291147 0.252774
vn -0.979683 0.178211 0.0919931
v -0.318368 -0.111722 -0.257745
vn -0.997464 -0.0541906 -0.0461441
v -0.318368 -0.111722 0.252774
vn -0.994293 -0.0540183 0.0919948
v -0.293021 0.291147 -0.257745
vn -0.967478 0.175991 -0.181694
v 0.47278 0.391138 0.267988
vn -0.796227 0.604973 0.00546654
v 0.478716 0.391138 -0.27446
vn 0.429055 0.903266 -0.0046953
v 0.47278 0.391138 -0.27446
vn -0.683056 0.730213 -0.0149498
v 0.478716 0.391138 0.267988
vn 0.931516 0.363476 0.0127907
v 0.478716 0.38547 -0.280129
vn 0.999944 0.000110442 -0.010582
v 0.478716 -0.154998 0.27788
vn 0.966642 -0.255812 0.0127867
v 0.478716 -0.154998 -0.280129
vn 0.966852 -0.254868 -0.0154672
v 0.478716 0.381246 0.27788
vn 0.999943 0.000192711 0.010639
v 0.336246 -0.154998 -0.280129
vn -0.990185 -0.139602 -0.00673431
v 0.336246 -0.154998 0.27788
vn -0.989974 -0.140612 0.013434
v 0.409562 0.380506 -0.280129
vn 0.992187 -0.124642 -0.00537542
v 0.342975 -0.149062 0.27788
vn 0.996209 -0.08595 0.0134418
v 0.342975 -0.149062 -0.280129
vn 0.996105 -0.0839587 -0.0269422
v 0.409035 0.376316 0.27788
vn 0.992178 -0.124361 0.0108347
v 0.410269 0.386131 0.267988
vn 0.971087 0.238638 0.00641049
v 0.410269 0.386131 -0.27446
vn 0.538442 0.84265 -0.00469596
v 0.404379 0.386872 0.267988
vn -0.711501 0.702601 0.0108955
v 0.404379 0.386872 -0.27446
vn -0.586784 0.809606 -0.0149519
v 0.360784 -0.149062 -0.26232
vn 0 0.999255 -0.0385884
v 0.47278 -0.149062 -0.280129
vn -0.999715 0.020609 -0.0120331
v 0.360784 -0.149062 0.260071
vn 0 1 0
v 0.454971 -0.149062 0.260071
vn 0 0.999105 0.0423026
v 0.454971 -0.149062 -0.26232
vn 0 0.99959 -0.028637
v 0.47278 -0.149062 0.27788
vn -0.997271 0.0726337 0.013206
v 0.47278 0.381246 0.27788
vn -0.999942 0.000195843 0.0107532
v 0.403145 0.377058 0.27788
vn -0.99212 0.124845 0.0105302
v 0.403672 0.381246 -0.280129
vn -0.991962 0.124836 -0.0206649
v 0.47278 0.38547 -0.280129
vn -0.999945 0.000109671 -0.0104507
v 0.360784 -0.137189 0.260071
vn 0 0 1
v 0.393961 -0.124234 0.260071
vn 0 0 1
v 0.417706 -0.124234 0.260071
vn 0 0 1
v 0.393961 -0.100489 0.260071
vn 0 0 1
v 0.454971 -0.137189 0.260071
vn 0 0 1
v 0.417706 -0.100489 0.260071
vn 0 0 1
v 0.417706 -0.100489 -0.26232
vn 0 0 -1
v 0.393961 -0.124234 -0.26232
vn 0 0 -1
v 0.393961 -0.100489 -0.26232
vn 0 0 -1
v 0.360784 -0.137189 -0.26232
vn 0 0 -1
v 0.417706 -0.124234 -0.26232
vn 0 0 -1
v 0.454971 -0.137189 -0.26232
vn 0 0 -1
v 0.362711 -0.117649 -0.00247053
vn 0 0 -1
v 0.407877 -0.143125 -0.00247053
vn 0 0 -1
v 0.407877 -0.150464 -0.00247053
vn 0 0 -1
v 0.369691 -0.115381 -0.00247053
vn 0 0 -1
v 0.379963 -0.0645536 -0.00247053
vn 0 0 -1
v 0.384276 -0.0704899 -0.00247053
vn 0 0 -1
v 0.431479 -0.0704899 -0.00247053
vn 0 0 -1
v 0.453043 -0.117649 -0.00247053
vn 0 0 -1
v 0.446064 -0.115381 -0.00247053
vn 0 0 -1
v 0.435792 -0.0645536 -0.00247053
vn 0 0 -1
v 0.362711 -0.117649 -0.216176
vn 0 0 -1
v 0.407877 -0.143125 -0.216176
vn 0 0 -1
v 0.407877 -0.150464 -0.216176
vn 0 0 -1
v 0.369691 -0.115381 -0.216176
vn 0 0 -1
v 0.379963 -0.0645536 -0.216176
vn 0 0 -1
v 0.384276 -0.0704899 -0.216176
vn 0 0 -1
v 0.431479 -0.0704899 -0.216176
vn 0 0 -1
v 0.453043 -0.117649 -0.216176
vn 0 0 -1
v 0.446064 -0.115381 -0.216176
vn 0 0 -1
v 0.435792 -0.0645536 -0.216176
vn 0 0 -1
v 0.362711 -0.117649 0.223093
vn 0 0 -1
v 0.407877 -0.143125 0.223093
vn 0 0 -1
v 0.407877 -0.150464 0.223093
vn 0 0 -1
v 0.369691 -0.115381 0.223093
vn 0 0 -1
v 0.379963 -0.0645536 0.223093
vn 0 0 -1
v 0.384276 -0.0704899 0.223093
vn 0 0 -1
v 0.431479 -0.0704899 0.223093
vn 0 0 -1
v 0.453043 -0.117649 0.223093
vn 0 0 -1
v 0.446064 -0.115381 0.223093
vn 0 0 -1
v 0.435792 -0.0645536 0.223093
vn 0 0 -1
v 0.457018 0.289328 -0.257745
vn 0.997464 0.0541951 -0.0461441
v 0.431673 -0.113541 0.252774
vn 0.979683 -0.178211 0.0919949
v 0.431673 -0.113541 -0.257745
vn 0.967478 -0.175991 -0.181698
v 0.457018 0.289328 0.252774
vn 0.994293 0.0540229 0.0919947
v 0.409622 0.29231 0.252774
vn -0.979683 0.178211 0.0919949
v 0.384276 -0.110559 -0.257745
vn -0.997464 -0.0541951 -0.0461441
v 0.384276 -0.110559 0.252774
vn -0.994293 -0.0540229 0.0919947
v 0.409622 0.29231 -0.257745
vn -0.967478 0.175991 -0.181698
v -0.38475 0.389609 0.267988
vn -0.79619 0.605023 0.00546597
v -0.378813 0.389609 -0.27446
vn 0.429051 0.903268 -0.00469531
v -0.38475 0.389609 -0.27446
vn -0.683052 0.730217 -0.0149499
v -0.378813 0.389609 0.267988
vn 0.9315 0.363517 0.0127898
v -0.378813 0.38394 -0.280129
vn 0.999944 0.000110443 -0.0105821
v -0.378813 -0.156527 0.27788
vn 0.966642 -0.255812 0.0127868
v -0.378813 -0.156527 -0.280129
vn 0.966852 -0.254868 -0.0154673
v -0.378813 0.379718 0.27788
vn 0.999943 0.000192713 0.0106391
v -0.521284 -0.156527 -0.280129
vn -0.990185 -0.139601 -0.00673405
v -0.521284 -0.156527 0.27788
vn -0.989974 -0.140612 0.0134339
v -0.447968 0.378978 -0.280129
vn 0.992187 -0.124642 -0.00537541
v -0.514555 -0.150591 0.27788
vn 0.996209 -0.0859496 0.0134415
v -0.514555 -0.150591 -0.280129
vn 0.996105 -0.0839584 -0.0269422
v -0.448495 0.374788 0.27788
vn 0.992178 -0.124361 0.0108343
v -0.447261 0.384602 0.267988
vn 0.971074 0.238691 0.00641056
v -0.447261 0.384602 -0.27446
vn 0.538347 0.84271 -0.00469473
v -0.45315 0.385342 0.267988
vn -0.711453 0.702649 0.0108952
v -0.45315 0.385342 -0.27446
vn -0.586634 0.809714 -0.014949
v -0.496746 -0.150591 -0.26232
vn 0 0.999255 -0.0385883
v -0.38475 -0.150591 -0.280129
vn -0.999715 0.020609 -0.0120332
v -0.496746 -0.150591 0.260071
vn 0 1 0
v -0.402558 -0.150591 0.260071
vn 0 0.999105 0.0423026
v -0.402558 -0.150591 -0.26232
vn 0 0.99959 -0.028637
v -0.38475 -0.150591 0.27788
vn -0.997271 0.0726334 0.0132061
v -0.38475 0.379718 0.27788
vn -0.999942 0.000195845 0.0107533
v -0.454384 0.375528 0.27788
vn -0.99212 0.124845 0.0105301
v -0.453857 0.379718 -0.280129
vn -0.991962 0.124836 -0.0206645
v -0.38475 0.38394 -0.280129
vn -0.999945 0.000109672 -0.0104509
v -0.496746 -0.138719 0.260071
vn 0 0 1
v -0.463568 -0.125764 0.260071
vn 0 0 1
v -0.439823 -0.125764 0.260071
vn 0 0 1
v -0.463568 -0.102018 0.260071
vn 0 0 1
v -0.402558 -0.138719 0.260071
vn 0 0 1
v -0.439823 -0.102018 0.260071
vn 0 0 1
v -0.439823 -0.102018 -0.26232
vn 0 0 -1
v -0.463568 -0.125764 -0.26232
vn 0 0 -1
v -0.463568 -0.102018 -0.26232
vn 0 0 -1
v -0.496746 -0.138719 -0.26232
vn 0 0 -1
v -0.439823 -0.125764 -0.26232
vn 0 0 -1
v -0.402558 -0.138719 -0.26232
vn 0 0 -1
v -0.494818 -0.119177 -0.00247053
vn 0 0 -1
v -0.449652 -0.144655 -0.00247053
vn 0 0 -1
v -0.449652 -0.151992 -0.00247053
vn 0 0 -1
v -0.487839 -0.116911 -0.00247053
vn 0 0 -1
v -0.477567 -0.0660811 -0.00247053
vn 0 0 -1
v -0.473253 -0.0720174 -0.00247053
vn 0 0 -1
v -0.426051 -0.0720174 -0.00247053
vn 0 0 -1
v -0.404486 -0.119177 -0.00247053
vn 0 0 -1
v -0.411464 -0.116911 -0.00247053
vn 0 0 -1
v -0.421738 -0.0660811 -0.00247053
vn 0 0 -1
v -0.494818 -0.119177 -0.216176
vn 0 0 -1
v -0.449652 -0.144655 -0.216176
vn 0 0 -1
v -0.449652 -0.151992 -0.216176
vn 0 0 -1
v -0.487839 -0.116911 -0.216176
vn 0 0 -1
v -0.477567 -0.0660811 -0.216176
vn 0 0 -1
v -0.473253 -0.0720174 -0.216176
vn 0 0 -1
v -0.426051 -0.0720174 -0.216176
vn 0 0 -1
v -0.404486 -0.119177 -0.216176
vn 0 0 -1
v -0.411464 -0.116911 -0.216176
vn 0 0 -1
v -0.421738 -0.0660811 -0.216176
vn 0 0 -1
v -0.494818 -0.119177 0.223093
vn 0 0 -1
v -0.449652 -0.144655 0.223093
vn 0 0 -1
v -0.449652 -0.151992 0.223093
vn 0 0 -1
v -0.487839 -0.116911 0.223093
vn 0 0 -1
v -0.477567 -0.0660811 0.223093
vn 0 0 -1
v -0.473253 -0.0720174 0.223093
vn 0 0 -1
v -0.426051 -0.0720174 0.223093
vn 0 0 -1
v -0.404486 -0.119177 0.223093
vn 0 0 -1
v -0.411464 -0.116911 0.223093
vn 0 0 -1
v -0.421738 -0.0660811 0.223093
vn 0 0 -1
v -0.400511 0.287801 -0.257745
vn 0.997464 0.0541906 -0.0461422
v -0.425857 -0.115069 0.252774
vn 0.979683 -0.178211 0.0919931
v -0.425857 -0.115069 -0.257745
vn 0.967478 -0.175991 -0.181694
v -0.400511 0.287801 0.252774
vn 0.994294 0.0540183 0.0919912
v -0.447906 0.290783 0.252774
vn -0.979683 0.178211 0.0919931
v -0.473253 -0.112087 -0.257745
vn -0.997464 -0.0541906 -0.0461441
v -0.473253 -0.112087 0.252774
vn -0.994293 -0.0540183 0.0919948
v -0.447906 0.290783 -0.257745
vn -0.967478 0.175991 -0.181694
v 0.317659 0.391109 0.267988
vn -0.890399 0.455107 0.00815109
v 0.321617 0.391109 -0.27446
vn 0.58034 0.814363 -0.00423458
v 0.317659 0.391109 -0.27446
vn -0.814337 0.58027 -0.011884
v 0.321617 0.391109 0.267988
vn 0.968851 0.247603 0.00443464
v 0.321617 0.385438 -0.280129
vn 0.999975 7.36418e-05 -0.00705602
v 0.321617 -0.155028 0.27788
vn 0.984754 -0.173737 0.00868529
v 0.321617 -0.155028 -0.280129
vn 0.984852 -0.173076 -0.0105045
v 0.321617 0.381216 0.27788
vn 0.999974 0.000256997 0.00722253
v 0.226637 -0.155028 -0.280129
vn -0.995602 -0.093577 -0.00451505
v 0.226637 -0.155028 0.27788
vn -0.995506 -0.0942653 0.00900827
v 0.275515 0.380476 -0.280129
vn 0.996505 -0.0834543 -0.0035992
v 0.231124 -0.149092 0.27788
vn 0.99831 -0.0574186 0.00898102
v 0.231124 -0.149092 -0.280129
vn 0.998263 -0.0560915 -0.0180026
v 0.275163 0.376286 0.27788
vn 0.996501 -0.0832661 0.00725431
v 0.275986 0.386102 0.267988
vn 0.986835 0.161674 0.00434299
v 0.275986 0.386102 -0.27446
vn 0.69195 0.721934 -0.00402319
v 0.272059 0.386842 0.267988
vn -0.835256 0.549796 0.00852662
v 0.272059 0.386842 -0.27446
vn -0.735938 0.676933 -0.0125016
v 0.242997 -0.149092 -0.26232
vn 0 0.999255 -0.0385882
v 0.317659 -0.149092 -0.280129
vn -0.999873 0.0137415 -0.00802442
v 0.242997 -0.149092 0.260071
vn 0 1 0
v 0.305787 -0.149092 0.260071
vn 0 0.999105 0.0423022
v 0.305787 -0.149092 -0.26232
vn 0 0.99959 -0.0286366
v 0.317659 -0.149092 0.27788
vn -0.998784 0.0484959 0.00881845
v 0.317659 0.381216 0.27788
vn -0.999975 6.52937e-05 0.00710487
v 0.271237 0.377026 0.27788
vn -0.996475 0.0835953 0.00705202
v 0.271588 0.381216 -0.280129
vn -0.996404 0.0835964 -0.0138401
v 0.317659 0.385438 -0.280129
vn -0.999976 7.31276e-05 -0.00696846
v 0.242997 -0.137219 0.260071
vn 0 0 1
v 0.265115 -0.124264 0.260071
vn 0 0 1
v 0.280944 -0.124264 0.260071
vn 0 0 1
v 0.265115 -0.100519 0.260071
vn 0 0 1
v 0.305787 -0.137219 0.260071
vn 0 0 1
v 0.280944 -0.100519 0.260071
vn 0 0 1
v 0.280944 -0.100519 -0.26232
vn 0 0 -1
v 0.265115 -0.124264 -0.26232
vn 0 0 -1
v 0.265115 -0.100519 -0.26232
vn 0 0 -1
v 0.242997 -0.137219 -0.26232
vn 0 0 -1
v 0.280944 -0.124264 -0.26232
vn 0 0 -1
v 0.305787 -0.137219 -0.26232
vn 0 0 -1
v 0.244281 -0.127523 -0.00247053
vn 0 0 -1
v 0.274391 -0.145358 -0.00247053
vn 0 0 -1
v 0.274391 -0.150494 -0.00247053
vn 0 0 -1
v 0.248933 -0.125936 -0.00247053
vn 0 0 -1
v 0.255782 -0.0903572 -0.00247053
vn 0 0 -1
v 0.258657 -0.0945116 -0.00247053
vn 0 0 -1
v 0.290126 -0.0945116 -0.00247053
vn 0 0 -1
v 0.304502 -0.127523 -0.00247053
vn 0 0 -1
v 0.29985 -0.125936 -0.00247053
vn 0 0 -1
v 0.293002 -0.0903572 -0.00247053
vn 0 0 -1
v 0.244281 -0.127523 -0.216176
vn 0 0 -1
v 0.274391 -0.145358 -0.216176
vn 0 0 -1
v 0.274391 -0.150494 -0.216176
vn 0 0 -1
v 0.248933 -0.125936 -0.216176
vn 0 0 -1
v 0.255782 -0.0903572 -0.216176
vn 0 0 -1
v 0.258657 -0.0945116 -0.216176
vn 0 0 -1
v 0.290126 -0.0945116 -0.216176
vn 0 0 -1
v 0.304502 -0.127523 -0.216176
vn 0 0 -1
v 0.29985 -0.125936 -0.216176
vn 0 0 -1
v 0.293002 -0.0903572 -0.216176
vn 0 0 -1
v 0.244281 -0.127523 0.223093
vn 0 0 -1
v 0.274391 -0.145358 0.223093
vn 0 0 -1
v 0.274391 -0.150494 0.223093
vn 0 0 -1
v 0.248933 -0.125936 0.223093
vn 0 0 -1
v 0.255782 -0.0903572 0.223093
vn 0 0 -1
v 0.258657 -0.0945116 0.223093
vn 0 0 -1
v 0.290126 -0.0945116 0.223093
vn 0 0 -1
v 0.304502 -0.127523 0.223093
vn 0 0 -1
v 0.29985 -0.125936 0.223093
vn 0 0 -1
v 0.293002 -0.0903572 0.223093
vn 0 0 -1
v 0.307153 0.289298 -0.257745
vn 0.99887 0.036178 -0.0308061
v 0.290255 -0.113571 0.252774
vn 0.990815 -0.12016 0.0620268
v 0.290255 -0.113571 -0.257745
vn 0.985146 -0.119473 -0.123344
v 0.307153 0.289298 0.252774
vn 0.997452 0.0361266 0.0615247
v 0.275556 0.292281 0.252774
vn -0.990815 0.12016 0.0620268
v 0.258657 -0.110589 -0.257745
vn -0.99887 -0.036178 -0.0308061
v 0.258657 -0.110589 0.252774
vn -0.997452 -0.0361266 0.0615247
v 0.275556 0.292281 -0.257745
vn -0.985146 0.119473 -0.123344
f 1//1 2//2 3//3
f 2//2 1//1 4//4
f 5//5 6//6 7//7
f 6//6 5//5 8//8
f 8//8 5//5 4//4
f 4//4 5//5 2//2
f 6//6 9//9 7//7
f 9//9 6//6 10//10
f 11//11 12//12 13//13
f 12//12 11//11 14//14
f 14//14 11//11 15//15
f 15//15 11//11 16//16
f 17//17 16//16 18//18
f 16//16 17//17 15//15
f 13//13 19//19 20//20
f 19//19 13//13 12//12
f 19//19 12//12 21//21
f 21//21 12//12 22//22
f 20//20 23//23 24//24
f 24//24 23//23 22//22
f 24//24 22//22 12//12
f 6//6 12//12 10//10
f 12//12 6//6 24//24
f 24//24 6//6 25//25
f 25//25 6//6 8//8
f 12//12 26//26 10//10
f 26//26 12//12 14//14
f 27//27 13//13 9//9
f 13//13 27//27 11//11
f 5//5 20//20 28//28
f 13//13 7//7 9//9
f 7//7 13//13 20//20
f 7//7 20//20 5//5
f 21//21 23//23 19//19
f 23//23 21//21 22//22
f 29//29 22//22 30//30
f 30//30 22//22 31//31
f 30//30 31//31 32//32
f 31//31 22//22 33//33
f 34//34 32//32 31//31
f 35//35 36//36 37//37
f 36//36 19//19 38//38
f 19//19 36//36 23//23
f 23//23 36//36 39//39
f 39//39 36//36 35//35
f 23//23 39//39 40//40
f 25//25 20//20 24//24
f 20//20 25//25 28//28
f 28//28 25//25 1//1
f 28//28 1//1 3//3
f 26//26 9//9 10//10
f 9//9 26//26 27//27
f 27//27 26//26 17//17
f 27//27 17//17 18//18
f 18//18 11//11 27//27
f 11//11 18//18 16//16
f 3//3 5//5 28//28
f 5//5 3//3 2//2
f 14//14 17//17 26//26
f 17//17 14//14 15//15
f 1//1 8//8 4//4
f 8//8 1//1 25//25
f 41//41 42//42 43//43
f 42//42 41//41 44//44
f 44//44 41//41 45//45
f 44//44 45//45 46//46
f 46//46 45//45 47//47
f 42//42 48//48 43//43
f 48//48 42//42 49//49
f 48//48 49//49 50//50
f 50//50 49//49 47//47
f 50//50 47//47 45//45
f 51//51 52//52 53//53
f 52//52 51//51 54//54
f 54//54 51//51 55//55
f 54//54 55//55 56//56
f 56//56 55//55 57//57
f 52//52 58//58 53//53
f 58//58 52//52 59//59
f 58//58 59//59 60//60
f 60//60 59//59 57//57
f 60//60 57//57 55//55
f 61//61 62//62 63//63
f 62//62 61//61 64//64
f 64//64 61//61 65//65
f 64//64 65//65 66//66
f 66//66 65//65 67//67
f 62//62 68//68 63//63
f 68//68 62//62 69//69
f 68//68 69//69 70//70
f 70//70 69//69 67//67
f 70//70 67//67 65//65
f 71//71 72//72 73//73
f 72//72 71//71 74//74
f 75//75 76//76 77//77
f 76//76 75//75 78//78
f 78//78 73//73 76//76
f 73//73 78//78 71//71
f 75//75 71//71 78//78
f 71//71 75//75 74//74
f 72//72 75//75 77//77
f 75//75 72//72 74//74
f 72//72 76//76 73//73
f 76//76 72//72 77//77
f 79//79 80//80 81//81
f 80//80 79//79 82//82
f 83//83 84//84 85//85
f 84//84 83//83 86//86
f 86//86 83//83 82//82
f 82//82 83//83 80//80
f 84//84 87//87 85//85
f 87//87 84//84 88//88
f 89//89 90//90 91//91
f 90//90 89//89 92//92
f 92//92 89//89 93//93
f 93//93 89//89 94//94
f 95//95 94//94 96//96
f 94//94 95//95 93//93
f 91//91 97//97 98//98
f 97//97 91//91 90//90
f 97//97 90//90 99//99
f 99//99 90//90 100//100
f 98//98 101//101 102//102
f 102//102 101//101 100//100
f 102//102 100//100 90//90
f 84//84 90//90 88//88
f 90//90 84//84 102//102
f 102//102 84//84 103//103
f 103//103 84//84 86//86
f 90//90 104//104 88//88
f 104//104 90//90 92//92
f 105//105 91//91 87//87
f 91//91 105//105 89//89
f 83//83 98//98 106//106
f 91//91 85//85 87//87
f 85//85 91//91 98//98
f 85//85 98//98 83//83
f 99//99 101//101 97//97
f 101//101 99//99 100//100
f 107//107 100//100 108//108
f 108//108 100//100 109//109
f 108//108 109//109 110//110
f 109//109 100//100 111//111
f 112//112 110//110 109//109
f 113//113 114//114 115//115
f 114//114 97//97 116//116
f 97//97 114//114 101//101
f 101//101 114//114 117//117
f 117//117 114//114 113//113
f 101//101 117//117 118//118
f 103//103 98//98 102//102
f 98//98 103//103 106//106
f 106//106 103//103 79//79
f 106//106 79//79 81//81
f 104//104 87//87 88//88
f 87//87 104//104 105//105
f 105//105 104//104 95//95
f 105//105 95//95 96//96
f 96//96 89//89 105//105
f 89//89 96//96 94//94
f 81//81 83//83 106//106
f 83//83 81//81 80//80
f 92//92 95//95 104//104
f 95//95 92//92 93//93
f 79//79 86//86 82//82
f 86//86 79//79 103//103
f 119//119 120//120 121//121
f 120//120 119//119 122//122
f 122//122 119//119 123//123
f 122//122 123//123 124//124
f 124//124 123//123 125//125
f 120//120 126//126 121//121
f 126//126 120//120 127//127
f 126//126 127//127 128//128
f 128//128 127//127 125//125
f 128//128 125//125 123//123
f 129//129 130//130 131//131
f 130//130 129//129 132//132
f 132//132 129//129 133//133
f 132//132 133//133 134//134
f 134//134 133//133 135//135
f 130//130 136//136 131//131
f 136//136 130//130 137//137
f 136//136 137//137 138//138
f 138//138 137//137 135//135
f 138//138 135//135 133//133
f 139//139 140//140 141//141
f 140//140 139//139 142//142
f 142//142 139//139 143//143
f 142//142 143//143 144//144
f 144//144 143//143 145//145
f 140//140 146//146 141//141
f 146//146 140//140 147//147
f 146//146 147//147 148//148
f 148//148 147//147 145//145
f 148//148 145//145 143//143
f 149//149 150//150 151//151
f 150//150 149//149 152//152
f 153//153 154//154 155//155
f 154//154 153//153 156//156
f 156//156 151//151 154//154
f 151//151 156//156 149//149
f 153//153 149//149 156//156
f 149//149 153//153 152//152
f 150//150 153//153 155//155
f 153//153 150//150 152//152
f 150//150 154//154 151//151
f 154//154 150//150 155//155
f 157//157 158//158 159//159
f 158//158 157//157 160//160
f 161//161 162//162 163//163
f 162//162 161//161 164//164
f 164//164 161//161 160//160
f 160//160 161//161 158//158
f 162//162 165//165 163//163
f 165//165 162//162 166//166
f 167//167 168//168 169//169
f 168//168 167//167 170//170
f 170//170 167//167 171//171
f 171//171 167//167 172//172
f 173//173 172//172 174//174
f 172//172 173//173 171//171
f 169//169 175//175 176//176
f 175//175 169//169 168//168
f 175//175 168//168 177//177
f 177//177 168//168 178//178
f 176//176 179//179 180//180
f 180//180 179//179 178//178
f 180//180 178//178 168//168
f 162//162 168//168 166//166
f 168//168 162//162 180//180
f 180//180 162//162 181//181
f 181//181 162//162 164//164
f 168//168 182//182 166//166
f 182//182 168//168 170//170
f 183//183 169//169 165//165
f 169//169 183//183 167//167
f 161//161 176//176 184//184
f 169//169 163//163 165//165
f 163//163 169//169 176//176
f 163//163 176//176 161//161
f 177//177 179//179 175//175
f 179//179 177//177 178//178
f 185//185 178//178 186//186
f 186//186 178//178 187//187
f 186//186 187//187 188//188
f 187//187 178//178 189//189
f 190//190 188//188 187//187
f 191//191 192//192 193//193
f 192//192 175//175 194//194
f 175//175 192//192 179//179
f 179//179 192//192 195//195
f 195//195 192//192 191//191
f 179//179 195//195 196//196
f 181//181 176//176 180//180
f 176//176 181//181 184//184
f 184//184 181//181 157//157
f 184//184 157//157 159//159
f 182//182 165//165 166//166
f 165//165 182//182 183//183
f 183//183 182//182 173//173
f 183//183 173//173 174//174
f 174//174 167//167 183//183
f 167//167 174//174 172//172
f 159//159 161//161 184//184
f 161//161 159//159 158//158
f 170//170 173//173 182//182
f 173//173 170//170 171//171
f 157//157 164//164 160//160
f 164//164 157//157 181//181
f 197//197 198//198 199//199
f 198//198 197//197 200//200
f 200//200 197//197 201//201
f 200//200 201//201 202//202
f 202//202 201//201 203//203
f 198//198 204//204 199//199
f 204//204 198//198 205//205
f 204//204 205//205 206//206
f 206//206 205//205 203//203
f 206//206 203//203 201//201
f 207//207 208//208 209//209
f 208//208 207//207 210//210
f 210//210 207//207 211//211
f 210//210 211//211 212//212
f 212//212 211//211 213//213
f 208//208 214//214 209//209
f 214//214 208//208 215//215
f 214//214 215//215 216//216
f 216//216 215//215 213//213
f 216//216 213//213 211//211
f 217//217 218//218 219//219
f 218//218 217//217 220//220
f 220//220 217//217 221//221
f 220//220 221//221 222//222
f 222//222 221//221 223//223
f 218//218 224//224 219//219
f 224//224 218//218 225//225
f 224//224 225//225 226//226
f 226//226 225//225 223//223
f 226//226 223//223 221//221
f 227//227 228//228 229//229
f 228//228 227//227 230//230
f 231//231 232//232 233//233
f 232//232 231//231 234//234
f 234//234 229//229 232//232
f 229//229 234//234 227//227
f 231//231 227//227 234//234
f 227//227 231//231 230//230
f 228//228 231//231 233//233
f 231//231 228//228 230//230
f 228//228 232//232 229//229
f 232//232 228//228 233//233
f 235//235 236//236 237//237
f 236//236 235//235 238//238
f 239//239 240//240 241//241
f 240//240 239//239 242//242
f 242//242 239//239 238//238
f 238//238 239//239 236//236
f 240//240 243//243 241//241
f 243//243 240//240 244//244
f 245//245 246//246 247//247
f 246//246 245//245 248//248
f 248//248 245//245 249//249
f 249//249 245//245 250//250
f 251//251 250//250 252//252
f 250//250 251//251 249//249
f 247//247 253//253 254//254
f 253//253 247//247 246//246
f 253//253 246//246 255//255
f 255//255 246//246 256//256
f 254//254 257//257 258//258
f 258//258 257//257 256//256
f 258//258 256//256 246//246
f 240//240 246//246 244//244
f 246//246 240//240 258//258
f 258//258 240//240 259//259
f 259//259 240//240 242//242
f 246//246 260//260 244//244
f 260//260 246//246 248//248
f 261//261 247//247 243//243
f 247//247 261//261 245//245
f 239//239 254//254 262//262
f 247//247 241//241 243//243
f 241//241 247//247 254//254
f 241//241 254//254 239//239
f 255//255 257//257 253//253
f 257//257 255//255 256//256
f 263//263 256//256 264//264
f 264//264 256//256 265//265
f 264//264 265//265 266//266
f 265//265 256//256 267//267
f 268//268 266//266 265//265
f 269//269 270//270 271//271
f 270//270 253//253 272//272
f 253//253 270//270 257//257
f 257//257 270//270 273//273
f 273//273 270//270 269//269
f 257//257 273//273 274//274
f 259//259 254//254 258//258
f 254//254 259//259 262//262
f 262//262 259//259 235//235
f 262//262 235//235 237//237
f 260//260 243//243 244//244
f 243//243 260//260 261//261
f 261//261 260//260 251//251
f 261//261 251//251 252//252
f 252//252 245//245 261//261
f 245//245 252//252 250//250
f 237//237 239//239 262//262
f 239//239 237//237 236//236
f 248//248 251//251 260//260
f 251//251 248//248 249//249
f 235//235 242//242 238//238
f 242//242 235//235 259//259
f 275//275 276//276 277//277
f 276//276 275//275 278//278
f 278//278 275//275 279//279
f 278//278 279//279 280//280
f 280//280 279//279 281//281
f 276//276 282//282 277//277
f 282//282 276//276 283//283
f 282//282 283//283 284//284
f 284//284 283//283 281//281
f 284//284 281//281 279//279
f 285//285 286//286 287//287
f 286//286 285//285 288//288
f 288//288 285//285 289//289
f 288//288 289//289 290//290
f 290//290 289//289 291//291
f 286//286 292//292 287//287
f 292//292 286//286 293//293
f 292//292 293//293 294//294
f 294//294 293//293 291//291
f 294//294 291//291 289//289
f 295//295 296//296 297//297
f 296//296 295//295 298//298
f 298//298 295//295 299//299
f 298//298 299//299 300//300
f 300//300 299//299 301//301
f 296//296 302//302 297//297
f 302//302 296//296 303//303
f 302//302 303//303 304//304
f 304//304 303//303 301//301
f 304//304 301//301 299//299
f 305//305 306//306 307//307
f 306//306 305//305 308//308
f 309//309 310//310 311//311
f 310//310 309//309 312//312
f 312//312 307//307 310//310
f 307//307 312//312 305//305
f 309//309 305//305 312//312
f 305//305 309//309 308//308
f 306//306 309//309 311//311
f 309//309 306//306 308//308
f 306//306 310//310 307//307
f 310//310 306//306 311//311
f 313//313 314//314 315//315
f 314//314 313//313 316//316
f 317//317 318//318 319//319
f 318//318 317//317 320//320
f 320//320 317//317 316//316
f 316//316 317//317 314//314
f 321//321 322//322 323//323
f 322//322 321//321 324//324
f 324//324 321//321 325//325
f 325//325 321//321 326//326
f 327//327 326//326 328//328
f 326//326 327//327 325//325
f 323//323 329//329 330//330
f 329//329 323//323 322//322
f 329//329 322//322 331//331
f 331//331 322//322 332//332
f 330//330 333//333 334//334
f 334//334 333//333 332//332
f 334//334 332//332 322//322
f 318//318 322//322 335//335
f 322//322 318//318 334//334
f 334//334 318//318 336//336
f 336//336 318//318 320//320
f 322//322 337//337 335//335
f 337//337 322//322 324//324
f 338//338 323//323 339//339
f 323//323 338//338 321//321
f 317//317 330//330 340//340
f 323//323 319//319 339//339
f 319//319 323//323 330//330
f 319//319 330//330 317//317
f 331//331 333//333 329//329
f 333//333 331//331 332//332
f 341//341 332//332 342//342
f 342//342 332//332 343//343
f 342//342 343//343 344//344
f 343//343 332//332 345//345
f 346//346 344//344 343//343
f 347//347 348//348 349//349
f 348//348 329//329 350//350
f 329//329 348//348 333//333
f 333//333 348//348 351//351
f 351//351 348//348 347//347
f 333//333 351//351 352//352
f 336//336 330//330 334//334
f 330//330 336//336 340//340
f 340//340 336//336 313//313
f 340//340 313//313 315//315
f 337//337 339//339 335//335
f 339//339 337//337 338//338
f 338//338 337//337 327//327
f 338//338 327//327 328//328
f 328//328 321//321 338//338
f 321//321 328//328 326//326
f 315//315 317//317 340//340
f 317//317 315//315 314//314
f 324//324 327//327 337//337
f 327//327 324//324 325//325
f 336//336 316//316 313//313
f 316//316 336//336 320//320
f 353//353 354//354 355//355
f 354//354 353//353 356//356
f 356//356 353//353 357//357
f 356//356 357//357 358//358
f 358//358 357//357 359//359
f 354//354 360//360 355//355
f 360//360 354//354 361//361
f 360//360 361//361 362//362
f 362//362 361//361 359//359
f 362//362 359//359 357//357
f 363//363 364//364 365//365
f 364//364 363//363 366//366
f 366//366 363//363 367//367
f 366//366 367//367 368//368
f 368//368 367//367 369//369
f 364//364 370//370 365//365
f 370//370 364//364 371//371
f 370//370 371//371 372//372
f 372//372 371//371 369//369
f 372//372 369//369 367//367
f 373//373 374//374 375//375
f 374//374 373//373 376//376
f 376//376 373//373 377//377
f 376//376 377//377 378//378
f 378//378 377//377 379//379
f 374//374 380//380 375//375
f 380//380 374//374 381//381
f 380//380 381//381 382//382
f 382//382 381//381 379//379
f 382//382 379//379 377//377
f 383//383 384//384 385//385
f 384//384 383//383 386//386
f 387//387 388//388 389//389
f 388//388 387//387 390//390
f 390//390 385//385 388//388
f 385//385 390//390 383//383
f 387//387 383//383 390//390
f 383//383 387//387 386//386
f 384//384 387//387 389//389
f 387//387 384//384 386//386
f 384//384 388//388 385//385
f 388//388 384//384 389//389
f 318//318 339//339 319//319
f 339//339 318//318 335//335
f 391//391 392//392 393//393
f 392//392 391//391 394//394
f 395//395 396//396 397//397
f 396//396 395//395 398//398
f 398//398 395//395 394//394
f 394//394 395//395 392//392
f 396//396 399//399 397//397
f 399//399 396//396 400//400
f 401//401 402//402 403//403
f 402//402 401//401 404//404
f 404//404 401//401 405//405
f 405//405 401//401 406//406
f 407//407 406//406 408//408
f 406//406 407//407 405//405
f 403//403 409//409 410//410
f 409//409 403//403 402//402
f 409//409 402//402 411//411
f 411//411 402//402 412//412
f 410//410 413//413 414//414
f 414//414 413//413 412//412
f 414//414 412//412 402//402
f 396//396 402//402 400//400
f 402//402 396//396 414//414
f 414//414 396//396 415//415
f 415//415 396//396 398//398
f 402//402 416//416 400//400
f 416//416 402//402 404//404
f 417//417 403//403 399//399
f 403//403 417//417 401//401
f 395//395 410//410 418//418
f 403//403 397//397 399//399
f 397//397 403//403 410//410
f 397//397 410//410 395//395
f 411//411 413//413 409//409
f 413//413 411//411 412//412
f 419//419 412//412 420//420
f 420//420 412//412 421//421
f 420//420 421//421 422//422
f 421//421 412//412 423//423
f 424//424 422//422 421//421
f 425//425 426//426 427//427
f 426//426 409//409 428//428
f 409//409 426//426 413//413
f 413//413 426//426 429//429
f 429//429 426//426 425//425
f 413//413 429//429 430//430
f 415//415 410//410 414//414
f 410//410 415//415 418//418
f 418//418 415//415 391//391
f 418//418 391//391 393//393
f 416//416 399//399 400//400
f 399//399 416//416 417//417
f 417//417 416//416 407//407
f 417//417 407//407 408//408
f 408//408 401//401 417//417
f 401//401 408//408 406//406
f 393//393 395//395 418//418
f 395//395 393//393 392//392
f 404//404 407//407 416//416
f 407//407 404//404 405//405
f 415//415 394//394 391//391
f 394//394 415//415 398//398
f 431//431 432//432 433//433
f 432//432 431//431 434//434
f 434//434 431//431 435//435
f 434//434 435//435 436//436
f 436//436 435//435 437//437
f 432//432 438//438 433//433
f 438//438 432//432 439//439
f 438//438 439//439 440//440
f 440//440 439//439 437//437
f 440//440 437//437 435//435
f 441//441 442//442 443//443
f 442//442 441//441 444//444
f 444//444 441//441 445//445
f 444//444 445//445 446//446
f 446//446 445//445 447//447
f 442//442 448//448 443//443
f 448//448 442//442 449//449
f 448//448 449//449 450//450
f 450//450 449//449 447//447
f 450//450 447//447 445//445
f 451//451 452//452 453//453
f 452//452 451//451 454//454
f 454//454 451//451 455//455
f 454//454 455//455 456//456
f 456//456 455//455 457//457
f 452//452 458//458 453//453
f 458//458 452//452 459//459
f 458//458 459//459 460//460
f 460//460 459//459 457//457
f 460//460 457//457 455//455
f 461//461 462//462 463//463
f 462//462 461//461 464//464
f 465//465 466//466 467//467
f 466//466 465//465 468//468
f 468//468 463//463 466//466
f 463//463 468//468 461//461
f 465//465 461//461 468//468
f 461//461 465//465 464//464
f 462//462 465//465 467//467
f 465//465 462//462 464//464
f 462//462 466//466 463//463
f 466//466 462//462 467//467
f 469//469 470//470 471//471
f 470//470 469//469 472//472
f 473//473 474//474 475//475
f 474//474 473//473 476//476
f 476//476 473//473 472//472
f 472//472 473//473 470//470
f 474//474 477//477 475//475
f 477//477 474//474 478//478
f 479//479 480//480 481//481
f 480//480 479//479 482//482
f 482//482 479//479 483//483
f 483//483 479//479 484//484
f 485//485 484//484 486//486
f 484//484 485//485 483//483
f 481//481 487//487 488//488
f 487//487 481//481 480//480
f 487//487 480//480 489//489
f 489//489 480//480 490//490
f 488//488 491//491 492//492
f 492//492 491//491 490//490
f 492//492 490//490 480//480
f 474//474 480//480 478//478
f 480//480 474//474 492//492
f 492//492 474//474 493//493
f 493//493 474//474 476//476
f 480//480 494//494 478//478
f 494//494 480//480 482//482
f 495//495 481//481 477//477
f 481//481 495//495 479//479
f 473//473 488//488 496//496
f 481//481 475//475 477//477
f 475//475 481//481 488//488
f 475//475 488//488 473//473
f 489//489 491//491 487//487
f 491//491 489//489 490//490
f 497//497 490//490 498//498
f 498//498 490//490 499//499
f 498//498 499//499 500//500
f 499//499 490//490 501//501
f 502//502 500//500 499//499
f 503//503 504//504 505//505
f 504//504 487//487 506//506
f 487//487 504//504 491//491
f 491//491 504//504 507//507
f 507//507 504//504 503//503
f 491//491 507//507 508//508
f 493//493 488//488 492//492
f 488//488 493//493 496//496
f 496//496 493//493 469//469
f 496//496 469//469 471//471
f 494//494 477//477 478//478
f 477//477 494//494 495//495
f 495//495 494//494 485//485
f 495//495 485//485 486//486
f 486//486 479//479 495//495
f 479//479 486//486 484//484
f 471//471 473//473 496//496
f 473//473 471//471 470//470
f 482//482 485//485 494//494
f 485//485 482//482 483//483
f 493//493 472//472 469//469
f 472//472 493//493 476//476
f 509//509 510//510 511//511
f 510//510 509//509 512//512
f 512//512 509//509 513//513
f 512//512 513//513 514//514
f 514//514 513//513 515//515
f 510//510 516//516 511//511
f 516//516 510//510 517//517
f 516//516 517//517 518//518
f 518//518 517//517 515//515
f 518//518 515//515 513//513
f 519//519 520//520 521//521
f 520//520 519//519 522//522
f 522//522 519//519 523//523
f 522//522 523//523 524//524
f 524//524 523//523 525//525
f 520//520 526//526 521//521
f 526//526 520//520 527//527
f 526//526 527//527 528//528
f 528//528 527//527 525//525
f 528//528 525//525 523//523
f 529//529 530//530 531//531
f 530//530 529//529 532//532
f 532//532 529//529 533//533
f 532//532 533//533 534//534
f 534//534 533//533 535//535
f 530//530 536//536 531//531
f 536//536 530//530 537//537
f 536//536 537//537 538//538
f 538//538 537//537 535//535
f 538//538 535//535 533//533
f 539//539 540//540 541//541
f 540//540 539//539 542//542
f 543//543 544//544 545//545
f 544//544 543//543 546//546
f 546//546 541//541 544//544
f 541//541 546//546 539//539
f 543//543 539//539 546//546
f 539//539 543//543 542//542
f 540//540 543//543 545//545
f 543//543 540//540 542//542
f 540//540 544//544 541//541
f 544//544 540//540 545//545
f 547//547 548//548 549//549
f 548//548 547//547 550//550
f 551//551 552//552 553//553
f 552//552 551//551 554//554
f 554//554 551//551 550//550
f 550//550 551//551 548//548
f 552//552 555//555 553//553
f 555//555 552//552 556//556
f 557//557 558//558 559//559
f 558//558 557//557 560//560
f 560//560 557//557 561//561
f 561//561 557//557 562//562
f 563//563 562//562 564//564
f 562//562 563//563 561//561
f 559//559 565//565 566//566
f 565//565 559//559 558//558
f 565//565 558//558 567//567
f 567//567 558//558 568//568
f 566//566 569//569 570//570
f 570//570 569//569 568//568
f 570//570 568//568 558//558
f 552//552 558//558 556//556
f 558//558 552//552 570//570
f 570//570 552//552 571//571
f 571//571 552//552 554//554
f 558//558 572//572 556//556
f 572//572 558//558 560//560
f 573//573 559//559 555//555
f 559//559 573//573 557//557
f 551//551 566//566 574//574
f 559//559 553//553 555//555
f 553//553 559//559 566//566
f 553//553 566//566 551//551
f 567//567 569//569 565//565
f 569//569 567//567 568//568
f 575//575 568//568 576//576
f 576//576 568//568 577//577
f 576//576 577//577 578//578
f 577//577 568//568 579//579
f 580//580 578//578 577//577
f 581//581 582//582 583//583
f 582//582 565//565 584//584
f 565//565 582//582 569//569
f 569//569 582//582 585//585
f 585//585 582//582 581//581
f 569//569 585//585 586//586
f 571//571 566//566 570//570
f 566//566 571//571 574//574
f 574//574 571//571 547//547
f 574//574 547//547 549//549
f 572//572 555//555 556//556
f 555//555 572//572 573//573
f 573//573 572//572 563//563
f 573//573 563//563 564//564
f 564//564 557//557 573//573
f 557//557 564//564 562//562
f 549//549 551//551 574//574
f 551//551 549//549 548//548
f 560//560 563//563 572//572
f 563//563 560//560 561//561
f 547//547 554//554 550//550
f 554//554 547//547 571//571
f 587//587 588//588 589//589
f 588//588 587//587 590//590
f 590//590 587//587 591//591
f 590//590 591//591 592//592
f 592//592 591//591 593//593
f 588//588 594//594 589//589
f 594//594 588//588 595//595
f 594//594 595//595 596//596
f 596//596 595//595 593//593
f 596//596 593//593 591//591
f 597//597 598//598 599//599
f 598//598 597//597 600//600
f 600//600 597//597 601//601
f 600//600 601//601 602//602
f 602//602 601//601 603//603
f 598//598 604//604 599//599
f 604//604 598//598 605//605
f 604//604 605//605 606//606
f 606//606 605//605 603//603
f 606//606 603//603 601//601
f 607//607 608//608 609//609
f 608//608 607//607 610//610
f 610//610 607//607 611//611
f 610//610 611//611 612//612
f 612//612 611//611 613//613
f 608//608 614//614 609//609
f 614//614 608//608 615//615
f 614//614 615//615 616//616
f 616//616 615//615 613//613
f 616//616 613//613 611//611
f 617//617 618//618 619//619
f 618//618 617//617 620//620
f 621//621 622//622 623//623
f 622//622 621//621 624//624
f 624//624 619//619 622//622
f 619//619 624//624 617//617
f 621//621 617//617 624//624
f 617//617 621//621 620//620
f 618//618 621//621 623//623
f 621//621 618//618 620//620
f 618//618 622//622 619//619
f 622//622 618//618 623//623
