# Created by Open3D 
# object name: m857_refined_clamped_norm
# number of vertices: 112
# number of triangles: 168
v -0.489473 -0.339767 -0.150981
vn -0.0331498 -0.0994492 -0.99449
v -0.489473 0.305264 -0.150981
vn -0.0332734 0.04991 -0.998199
v 0.478072 -0.339767 -0.150981
vn 0.0333045 -0.0249784 -0.999133
v 0.478072 0.305264 -0.150981
vn 0.0332734 0.04991 -0.998199
v 0.478072 -0.339767 -0.11873
vn 0.0166436 -0.0499308 0.998614
v -0.489473 -0.339767 -0.11873
vn -0.0664366 -0.0498274 0.996546
v -0.489473 0.305264 -0.11873
vn -0.0166592 0.0249888 0.999549
v 0.478072 0.305264 -0.11873
vn 0.0661906 0.0992857 0.992855
v 0.461979 -0.339767 0.171536
vn -0.990128 -0.0990132 0.0992153
v 0.461979 0.305264 0.171536
vn -0.993788 0.0496896 0.0995821
v 0.461914 -0.339767 -0.150978
vn -0.99475 -0.0248675 -0.0992688
v 0.461914 0.305264 -0.150978
vn -0.993828 0.0496889 -0.0991768
v 0.494164 -0.339767 -0.150985
vn 0.997499 -0.0498747 -0.0500791
v 0.494231 -0.339767 0.17153
vn 0.979444 -0.0489704 0.19568
v 0.494231 0.305264 0.17153
vn 0.998451 0.0249611 0.0497169
v 0.494164 0.305264 -0.150985
vn 0.975861 0.0975885 -0.195375
v -0.505566 -0.339767 0.171734
vn -0.990127 -0.0990152 0.0992157
v -0.505566 0.305264 0.171734
vn -0.993788 0.0496906 0.0995825
v -0.505631 -0.339767 -0.15078
vn -0.99475 -0.0248682 -0.0992717
v -0.505631 0.305264 -0.15078
vn -0.993828 0.0496904 -0.0991798
v -0.47338 -0.339767 -0.150788
vn 0.997499 -0.0498756 -0.0500775
v -0.473315 -0.339767 0.171727
vn 0.979444 -0.04897 0.195682
v -0.473315 0.305264 0.171727
vn 0.998451 0.024961 0.0497201
v -0.47338 0.305264 -0.150788
vn 0.97586 0.0975906 -0.195379
v 0.494234 -0.35579 0.17153
vn 0.0642853 -0.99298 0.0992834
v -0.505562 -0.355994 0.171734
vn -0.0318581 -0.994532 0.0994577
v 0.494168 -0.35579 -0.150985
vn 0.0162293 -0.994906 -0.0994929
v -0.505628 -0.355994 -0.15078
vn -0.0318987 -0.994532 -0.0994463
v 0.494161 -0.32354 -0.150985
vn 0.0319871 0.998241 -0.0499167
v 0.494227 -0.32354 0.17153
vn 0.0314558 0.980097 0.196009
v -0.505569 -0.323743 0.171734
vn -0.0162996 0.998619 0.0499346
v -0.505635 -0.323743 -0.15078
vn -0.0633761 0.978612 -0.19571
v 0.494201 -0.194533 0.17153
vn 0.0642862 -0.99298 0.0992864
v -0.505596 -0.194736 0.171734
vn -0.0318591 -0.994531 0.0994594
v 0.494135 -0.194533 -0.150985
vn 0.0162288 -0.994906 -0.0994945
v -0.505661 -0.194736 -0.15078
vn -0.0318998 -0.994531 -0.0994464
v 0.494128 -0.162282 -0.150985
vn 0.0319882 0.998241 -0.0499185
v 0.494195 -0.162282 0.17153
vn 0.0314568 0.980097 0.196012
v -0.505602 -0.162485 0.171734
vn -0.0162996 0.998619 0.0499346
v -0.505667 -0.162485 -0.15078
vn -0.0633761 0.978611 -0.195713
v 0.494168 -0.0332754 0.17153
vn 0.0642873 -0.99298 0.0992865
v -0.505628 -0.0334796 0.171734
vn -0.0318581 -0.994532 0.0994593
v 0.494102 -0.0332754 -0.150985
vn 0.0162298 -0.994906 -0.0994945
v -0.505694 -0.0334796 -0.15078
vn -0.0318987 -0.994532 -0.0994463
v 0.494096 -0.00102383 -0.150985
vn 0.0319871 0.998241 -0.0499184
v 0.494161 -0.00102383 0.17153
vn 0.0314557 0.980097 0.196012
v -0.505635 -0.00122803 0.171734
vn -0.0163006 0.998619 0.0499346
v -0.505701 -0.00122803 -0.15078
vn -0.063377 0.978611 -0.195712
v 0.494135 0.127981 0.17153
vn 0.0642863 -0.99298 0.0992866
v -0.505661 0.127778 0.171734
vn -0.0318592 -0.994531 0.0994594
v 0.49407 0.127981 -0.150985
vn 0.0162288 -0.994906 -0.0994946
v -0.505727 0.127778 -0.15078
vn -0.0318998 -0.994531 -0.0994464
v 0.494063 0.160233 -0.150985
vn 0.0319882 0.998241 -0.0499184
v 0.494128 0.160233 0.17153
vn 0.0314568 0.980097 0.196013
v -0.505667 0.16003 0.171734
vn -0.0162996 0.998619 0.0499347
v -0.505734 0.16003 -0.15078
vn -0.063376 0.978611 -0.195712
v 0.494102 0.289239 0.17153
vn 0.0642873 -0.99298 0.0992865
v -0.505694 0.289035 0.171734
vn -0.0318581 -0.994532 0.0994593
v 0.494037 0.289239 -0.150985
vn 0.0162299 -0.994906 -0.0994945
v -0.50576 0.289035 -0.15078
vn -0.0318987 -0.994532 -0.0994463
v 0.494031 0.321491 -0.150985
vn 0.0319871 0.998241 -0.0499184
v 0.494096 0.321491 0.17153
vn 0.0314557 0.980097 0.196012
v -0.505701 0.321287 0.171734
vn -0.0163006 0.998619 0.0499346
v -0.505766 0.321287 -0.15078
vn -0.0633771 0.978611 -0.195713
v 0.332776 0.305335 0.171563
vn 0.990127 0.0994187 0.0988143
v 0.333039 -0.339694 0.171563
vn 0.993848 -0.0492858 0.0991781
v 0.332711 0.305335 -0.150952
vn 0.994699 0.0252735 -0.0996763
v 0.332973 -0.339694 -0.150952
vn 0.993808 -0.0492866 -0.0995853
v 0.300459 0.305322 -0.150945
vn -0.99754 0.0494693 -0.049672
v 0.300524 0.305322 0.17157
vn -0.979384 0.0485709 0.196081
v 0.300787 -0.339708 0.17157
vn -0.998421 -0.0253677 0.0501259
v 0.300721 -0.339708 -0.150946
vn -0.9759 -0.0979865 -0.194979
v 0.171518 0.30527 0.171596
vn 0.990127 0.0994175 0.0988116
v 0.171781 -0.339761 0.171596
vn 0.993848 -0.049285 0.0991782
v 0.171453 0.30527 -0.150919
vn 0.994699 0.0252742 -0.0996745
v 0.171716 -0.339761 -0.150919
vn 0.993808 -0.0492852 -0.0995822
v 0.139201 0.305256 -0.150912
vn -0.99754 0.0494687 -0.0496721
v 0.139267 0.305256 0.171603
vn -0.979384 0.0485707 0.19608
v 0.13953 -0.339773 0.171603
vn -0.998421 -0.0253677 0.0501258
v 0.139464 -0.339773 -0.150912
vn -0.9759 -0.097988 -0.194982
v 0.0102611 0.305204 0.171629
vn 0.990128 0.0994173 0.0988114
v 0.0105243 -0.339826 0.171629
vn 0.993849 -0.0492852 0.0991769
v 0.0101948 0.305204 -0.150886
vn 0.994699 0.0252733 -0.0996761
v 0.010458 -0.339826 -0.150886
vn 0.993808 -0.0492851 -0.0995854
v -0.0220557 0.305191 -0.150879
vn -0.99754 0.0494687 -0.0496706
v -0.0219904 0.305191 0.171635
vn -0.979384 0.0485708 0.19608
v -0.0217273 -0.339839 0.171635
vn -0.998421 -0.0253676 0.0501259
v -0.0217936 -0.339839 -0.150879
vn -0.975901 -0.097987 -0.194977
v -0.150997 0.305138 0.171662
vn 0.990127 0.0994189 0.0988146
v -0.150734 -0.339891 0.171662
vn 0.993848 -0.0492851 0.0991785
v -0.151062 0.305138 -0.150853
vn 0.994699 0.0252733 -0.0996745
v -0.1508 -0.339891 -0.150853
vn 0.993808 -0.049285 -0.099582
v -0.183314 0.305126 -0.150847
vn -0.99754 0.0494686 -0.0496739
v -0.183248 0.305126 0.171668
vn -0.979384 0.0485707 0.196079
v -0.182985 -0.339905 0.171668
vn -0.998421 -0.0253684 0.0501242
v -0.18305 -0.339905 -0.150847
vn -0.9759 -0.097987 -0.19498
v -0.312254 0.305073 0.171694
vn 0.990127 0.0994175 0.0988118
v -0.311991 -0.339957 0.171694
vn 0.993848 -0.0492859 0.0991785
v -0.31232 0.305073 -0.15082
vn 0.994699 0.0252733 -0.0996761
v -0.312057 -0.339957 -0.15082
vn 0.993808 -0.049285 -0.0995822
v -0.344572 0.305059 -0.150814
vn -0.99754 0.0494695 -0.0496722
v -0.344505 0.305059 0.171701
vn -0.979384 0.0485723 0.196083
v -0.344243 -0.33997 0.171701
vn -0.998421 -0.0253676 0.0501259
v -0.344308 -0.33997 -0.150814
vn -0.975899 -0.0979885 -0.194983
v 0.108732 0.247775 0.0506659
vn 0.907869 -0.377503 0.182388
v 0.052338 0.190149 0.0506775
vn 0.553163 -0.810566 0.192337
v 0.108715 0.247775 -0.0299625
vn 0.765702 -0.612815 -0.195342
v 0.0523211 0.190149 -0.029952
vn 0.553084 -0.810565 -0.192569
v 0.0971896 0.259054 -0.0299604
vn -0.56099 0.822064 -0.0974748
v 0.0972064 0.259054 0.050668
vn -0.524664 0.768968 0.365262
v 0.0408127 0.201428 0.0506796
vn -0.776901 0.621763 0.0991785
v 0.0407958 0.201428 -0.0299488
vn -0.865654 0.359939 -0.347977
f 1//1 2//2 3//3
f 3//3 2//2 4//4
f 1//1 5//5 6//6
f 1//1 3//3 5//5
f 1//1 6//6 2//2
f 2//2 6//6 7//7
f 2//2 7//7 8//8
f 2//2 8//8 4//4
f 3//3 8//8 5//5
f 3//3 4//4 8//8
f 5//5 7//7 6//6
f 5//5 8//8 7//7
f 9//9 10//10 11//11
f 11//11 10//10 12//12
f 9//9 13//13 14//14
f 9//9 11//11 13//13
f 9//9 14//14 10//10
f 10//10 14//14 15//15
f 10//10 15//15 16//16
f 10//10 16//16 12//12
f 11//11 16//16 13//13
f 11//11 12//12 16//16
f 13//13 15//15 14//14
f 13//13 16//16 15//15
f 17//17 18//18 19//19
f 19//19 18//18 20//20
f 17//17 21//21 22//22
f 17//17 19//19 21//21
f 17//17 22//22 18//18
f 18//18 22//22 23//23
f 18//18 23//23 24//24
f 18//18 24//24 20//20
f 19//19 24//24 21//21
f 19//19 20//20 24//24
f 21//21 23//23 22//22
f 21//21 24//24 23//23
f 25//25 26//26 27//27
f 27//27 26//26 28//28
f 25//25 29//29 30//30
f 25//25 27//27 29//29
f 25//25 30//30 26//26
f 26//26 30//30 31//31
f 26//26 31//31 32//32
f 26//26 32//32 28//28
f 27//27 32//32 29//29
f 27//27 28//28 32//32
f 29//29 31//31 30//30
f 29//29 32//32 31//31
f 33//33 34//34 35//35
f 35//35 34//34 36//36
f 33//33 37//37 38//38
f 33//33 35//35 37//37
f 33//33 38//38 34//34
f 34//34 38//38 39//39
f 34//34 39//39 40//40
f 34//34 40//40 36//36
f 35//35 40//40 37//37
f 35//35 36//36 40//40
f 37//37 39//39 38//38
f 37//37 40//40 39//39
f 41//41 42//42 43//43
f 43//43 42//42 44//44
f 41//41 45//45 46//46
f 41//41 43//43 45//45
f 41//41 46//46 42//42
f 42//42 46//46 47//47
f 42//42 47//47 48//48
f 42//42 48//48 44//44
f 43//43 48//48 45//45
f 43//43 44//44 48//48
f 45//45 47//47 46//46
f 45//45 48//48 47//47
f 49//49 50//50 51//51
f 51//51 50//50 52//52
f 49//49 53//53 54//54
f 49//49 51//51 53//53
f 49//49 54//54 50//50
f 50//50 54//54 55//55
f 50//50 55//55 56//56
f 50//50 56//56 52//52
f 51//51 56//56 53//53
f 51//51 52//52 56//56
f 53//53 55//55 54//54
f 53//53 56//56 55//55
f 57//57 58//58 59//59
f 59//59 58//58 60//60
f 57//57 61//61 62//62
f 57//57 59//59 61//61
f 57//57 62//62 58//58
f 58//58 62//62 63//63
f 58//58 63//63 64//64
f 58//58 64//64 60//60
f 59//59 64//64 61//61
f 59//59 60//60 64//64
f 61//61 63//63 62//62
f 61//61 64//64 63//63
f 65//65 66//66 67//67
f 67//67 66//66 68//68
f 65//65 69//69 70//70
f 65//65 67//67 69//69
f 65//65 70//70 66//66
f 66//66 70//70 71//71
f 66//66 71//71 72//72
f 66//66 72//72 68//68
f 67//67 72//72 69//69
f 67//67 68//68 72//72
f 69//69 71//71 70//70
f 69//69 72//72 71//71
f 73//73 74//74 75//75
f 75//75 74//74 76//76
f 73//73 77//77 78//78
f 73//73 75//75 77//77
f 73//73 78//78 74//74
f 74//74 78//78 79//79
f 74//74 79//79 80//80
f 74//74 80//80 76//76
f 75//75 80//80 77//77
f 75//75 76//76 80//80
f 77//77 79//79 78//78
f 77//77 80//80 79//79
f 81//81 82//82 83//83
f 83//83 82//82 84//84
f 81//81 85//85 86//86
f 81//81 83//83 85//85
f 81//81 86//86 82//82
f 82//82 86//86 87//87
f 82//82 87//87 88//88
f 82//82 88//88 84//84
f 83//83 88//88 85//85
f 83//83 84//84 88//88
f 85//85 87//87 86//86
f 85//85 88//88 87//87
f 89//89 90//90 91//91
f 91//91 90//90 92//92
f 89//89 93//93 94//94
f 89//89 91//91 93//93
f 89//89 94//94 90//90
f 90//90 94//94 95//95
f 90//90 95//95 96//96
f 90//90 96//96 92//92
f 91//91 96//96 93//93
f 91//91 92//92 96//96
f 93//93 95//95 94//94
f 93//93 96//96 95//95
f 97//97 98//98 99//99
f 99//99 98//98 100//100
f 97//97 101//101 102//102
f 97//97 99//99 101//101
f 97//97 102//102 98//98
f 98//98 102//102 103//103
f 98//98 103//103 104//104
f 98//98 104//104 100//100
f 99//99 104//104 101//101
f 99//99 100//100 104//104
f 101//101 103//103 102//102
f 101//101 104//104 103//103
f 105//105 106//106 107//107
f 107//107 106//106 108//108
f 105//105 109//109 110//110
f 105//105 107//107 109//109
f 105//105 110//110 106//106
f 106//106 110//110 111//111
f 106//106 111//111 112//112
f 106//106 112//112 108//108
f 107//107 112//112 109//109
f 107//107 108//108 112//112
f 109//109 111//111 110//110
f 109//109 112//112 111//111
